<svg xmlns="http://www.w3.org/2000/svg" width="256" height="256" viewBox="0 0 100 100"><rect width="100" height="100" rx="20" fill="#2564eb"></rect><path d="M34.57 43.11L34.57 43.11Q34.57 45.27 33.37 46.78Q32.17 48.30 30.01 49.16L30.01 49.16Q35.58 50.98 35.58 56.02L35.58 56.02Q35.58 60.78 32.05 63.06Q28.52 65.34 21.90 65.34L21.90 65.34Q21.08 65.34 19.98 65.29Q18.87 65.24 17.70 65.10Q16.52 64.95 15.37 64.74Q14.22 64.52 13.26 64.14L13.26 64.14Q10.62 63.13 10.62 60.63L10.62 60.63L10.62 38.22Q10.62 37.21 11.17 36.66Q11.72 36.10 12.68 35.77L12.68 35.77Q14.31 35.19 16.76 34.93Q19.21 34.66 21.80 34.66L21.80 34.66Q27.94 34.66 31.26 36.73Q34.57 38.79 34.57 43.11ZM26.98 55.64L26.98 55.64Q26.98 52.71 23.05 52.71L23.05 52.71L18.78 52.71L18.78 58.57Q19.45 58.76 20.50 58.83Q21.56 58.90 22.52 58.90L22.52 58.90Q24.44 58.90 25.71 58.11Q26.98 57.32 26.98 55.64ZM18.78 41.19L18.78 46.86L22.28 46.86Q24.34 46.86 25.28 46.09Q26.22 45.32 26.22 43.83L26.22 43.83Q26.22 42.54 25.14 41.77Q24.06 41 21.90 41L21.90 41Q21.18 41 20.24 41.05Q19.30 41.10 18.78 41.19L18.78 41.19ZM49.26 58.62L49.26 58.62Q51.61 58.62 52.57 57.85Q53.53 57.08 53.53 56.12L53.53 56.12Q53.53 55.16 52.76 54.61Q51.99 54.06 50.60 53.58L50.60 53.58L48.58 52.90Q46.47 52.18 44.74 51.44Q43.02 50.70 41.77 49.64Q40.52 48.58 39.82 47.12Q39.13 45.66 39.13 43.54L39.13 43.54Q39.13 39.46 42.27 37.02Q45.42 34.57 51.08 34.57L51.08 34.57Q53.14 34.57 54.92 34.86Q56.70 35.14 57.97 35.74Q59.24 36.34 59.96 37.28Q60.68 38.22 60.68 39.46L60.68 39.46Q60.68 40.71 60.10 41.60Q59.53 42.49 58.71 43.11L58.71 43.11Q57.66 42.44 55.88 41.94Q54.10 41.43 51.99 41.43L51.99 41.43Q49.83 41.43 48.82 42.03Q47.82 42.63 47.82 43.54L47.82 43.54Q47.82 44.26 48.44 44.72Q49.06 45.18 50.31 45.56L50.31 45.56L52.86 46.38Q57.37 47.82 59.79 50.10Q62.22 52.38 62.22 56.22L62.22 56.22Q62.22 58.23 61.40 59.94Q60.58 61.64 58.98 62.86Q57.37 64.09 54.99 64.76Q52.62 65.43 49.54 65.43L49.54 65.43Q47.34 65.43 45.44 65.07Q43.54 64.71 42.13 64.02Q40.71 63.32 39.92 62.29Q39.13 61.26 39.13 59.91L39.13 59.91Q39.13 58.52 39.94 57.54Q40.76 56.55 41.72 56.02L41.72 56.02Q43.06 57.08 45.01 57.85Q46.95 58.62 49.26 58.62ZM88.52 35.48L88.52 35.48Q88.86 36.01 89.12 36.87Q89.38 37.74 89.38 38.74L89.38 38.74Q89.38 40.57 88.59 41.38Q87.80 42.20 86.46 42.20L86.46 42.20L81.03 42.20L81.03 64.52Q80.50 64.66 79.40 64.81Q78.30 64.95 77.14 64.95L77.14 64.95Q74.60 64.95 73.62 64.09Q72.63 63.22 72.63 60.97L72.63 60.97L72.63 42.20L65.38 42.20Q65.05 41.67 64.78 40.81Q64.52 39.94 64.52 38.94L64.52 38.94Q64.52 37.11 65.31 36.30Q66.10 35.48 67.45 35.48L67.45 35.48L88.52 35.48Z" fill="#d0021b"></path></svg>